<svg width="250" height="250" xmlns="http://www.w3.org/2000/svg" p-id="2443" version="1.1" class="icon" t="1612246585737">

 <g>
  <title>background</title>
  <rect fill="none" id="canvas_background" height="252" width="252" y="-1" x="-1"/>
 </g>
 <g>
  <title>Layer 1</title>
  <path stroke="null" fill="#0A85ED" id="svg_1" d="m163.06721,236.65488l-92.771575,-170.568485l0,168.268989q0,13.864607 -14.302432,13.864607l0,0l-39.658347,0q-14.337746,0 -14.337746,-13.864607l0,0l0,-216.65985q0,-13.695527 14.337746,-13.695527l0,0l60.670562,0q7.416076,0 11.053484,2.130415l0,0q3.425521,1.995151 6.886356,8.420213l0,0l85.708646,160.356019l0,-157.042039q0,-13.864607 14.302432,-13.864607l0,0l39.658347,0q14.302432,0 14.302432,13.864607l0,0l0,215.645367q0,13.695527 -14.302432,13.695527l0,0l-53.289801,0q-7.557334,0 -11.194743,-2.130415l0,0q-3.460835,-1.995151 -7.062929,-8.420213l0,0z"/>
 </g>
</svg>